<svg xmlns="http://www.w3.org/2000/svg" width="247.971" height="45.245" viewBox="0 0 247.971 45.245">
  <g id="Group_838" data-name="Group 838" transform="translate(-124 -35)">
    <g id="Group_837" data-name="Group 837">
      <path id="Path_579" data-name="Path 579" d="M168.235,173.233c5.069,0,8.386,2.608,9.43,6.894h-3.652c-.709-2.46-2.758-4.025-5.778-4.025-3.726,0-6.484,2.647-6.484,7.64,0,5.069,2.758,7.715,6.484,7.715,3.02,0,5.032-1.453,5.778-4.025h3.652c-1.044,4.063-4.361,6.895-9.43,6.895-5.813,0-9.951-4.1-9.951-10.585C158.284,177.332,162.422,173.233,168.235,173.233Z" transform="translate(38.716 -119.411)" fill="#173e96"/>
      <path id="Path_580" data-name="Path 580" d="M176.669,167.633h3.39v27.58h-3.39Z" transform="translate(42.727 -120.633)" fill="#173e96"/>
      <path id="Path_581" data-name="Path 581" d="M192.1,194.327c-5.775,0-10.173-4.1-10.173-10.585,0-6.448,4.548-10.509,10.323-10.509,5.814,0,10.325,4.061,10.325,10.509A10.128,10.128,0,0,1,192.1,194.327Zm0-2.982c3.543,0,7.008-2.422,7.008-7.6,0-5.143-3.391-7.565-6.895-7.565-3.577,0-6.821,2.422-6.821,7.565C185.395,188.923,188.562,191.345,192.1,191.345Z" transform="translate(43.875 -119.411)" fill="#173e96"/>
      <path id="Path_582" data-name="Path 582" d="M219.47,193.931h-3.393v-3.019a7.507,7.507,0,0,1-6.521,3.317c-4.7,0-8.386-2.907-8.386-8.758V173.508h3.354v11.516c0,4.137,2.274,6.261,5.7,6.261,3.5,0,5.851-2.161,5.851-6.559V173.508h3.393Z" transform="translate(48.073 -119.351)" fill="#173e96"/>
      <path id="Path_583" data-name="Path 583" d="M228.362,174.455a8.91,8.91,0,0,1,7.567,3.987V167.633h3.428v27.58H235.93v-3.839a8.388,8.388,0,0,1-7.6,4.175c-5.479,0-9.691-4.287-9.691-10.621C218.635,178.554,222.846,174.455,228.362,174.455ZM229,177.4c-3.726,0-6.895,2.719-6.895,7.528s3.168,7.639,6.895,7.639,6.933-2.795,6.933-7.6C235.93,180.232,232.723,177.4,229,177.4Z" transform="translate(51.884 -120.633)" fill="#173e96"/>
      <path id="Path_584" data-name="Path 584" d="M245.045,183.406v11.553h-6.374V168.8h6.374v11.479l8.722-11.479h7.489L251.12,181.617l10.509,13.342H253.84Z" transform="translate(56.255 -120.379)" fill="#00b579"/>
      <path id="Path_585" data-name="Path 585" d="M267.3,172.957a7.239,7.239,0,0,1,6.41,3.242v-2.943h6.374v20.8h-6.374v-2.943a7.352,7.352,0,0,1-6.448,3.242c-5.066,0-9.132-4.174-9.132-10.733S262.2,172.957,267.3,172.957Zm1.865,5.554c-2.385,0-4.547,1.788-4.547,5.105s2.162,5.181,4.547,5.181c2.422,0,4.545-1.826,4.545-5.143S271.59,178.511,269.168,178.511Z" transform="translate(59.502 -119.471)" fill="#00b579"/>
      <path id="Path_586" data-name="Path 586" d="M285.5,194.038h-6.374v-20.8H285.5v3.466a7.75,7.75,0,0,1,6.522-3.69v6.746h-1.752c-3.02,0-4.77,1.044-4.77,4.622Z" transform="translate(64.083 -119.458)" fill="#00b579"/>
      <path id="Path_587" data-name="Path 587" d="M294.5,179.4h-2.535V174.11H294.5v-5.069h6.374v5.069h4.172V179.4h-4.172v8.348c0,1.23.52,1.752,1.937,1.752h2.274v5.4h-3.243c-4.325,0-7.342-1.826-7.342-7.23Z" transform="translate(66.884 -120.326)" fill="#00b579"/>
    </g>
    <g id="Group_713" data-name="Group 713" transform="translate(37.527 -109.904)">
      <path id="Path_588" data-name="Path 588" d="M127.016,185.908h-26.41a9.893,9.893,0,1,1,6.822-17.05h0l3.269-2.734h0l-.027-.025a9.881,9.881,0,1,1,16.437-9.672l3.952-1.625-.01-.037c-.1-.309-.215-.611-.334-.91-.049-.124-.09-.251-.142-.373-.136-.315-.288-.62-.444-.922-.052-.1-.1-.2-.15-.3-.175-.322-.37-.631-.569-.938-.046-.07-.086-.144-.133-.213-.223-.328-.463-.643-.712-.952-.033-.041-.062-.084-.1-.124q-.413-.5-.872-.96c-.011-.011-.021-.023-.032-.035a14.062,14.062,0,0,0-9.976-4.136h-.015a14.061,14.061,0,0,0-9.975,4.136c-.012.012-.023.026-.035.038q-.456.458-.869.957c-.034.04-.062.083-.1.124-.249.308-.489.624-.712.952-.047.069-.087.143-.133.213-.2.306-.394.616-.57.938-.054.1-.1.2-.149.3-.157.3-.309.607-.444.922-.052.122-.093.249-.143.373-.118.3-.235.6-.333.91-.045.143-.078.289-.119.433-.084.3-.169.6-.233.907-.034.158-.055.318-.082.478-.054.3-.106.6-.139.913-.019.167-.024.337-.036.5-.019.249-.048.494-.053.745l.015,0c0,.1-.015.192-.015.29a14.106,14.106,0,0,0,.387,3.231,14.129,14.129,0,1,0-3.241,27.88h28.827Z" transform="translate(0 0)" fill="#173e96"/>
      <g id="Group_712" data-name="Group 712" transform="translate(108.529 160.027)">
        <path id="Path_589" data-name="Path 589" d="M134.455,185.692a2.469,2.469,0,1,0,3.121,1.565A2.472,2.472,0,0,0,134.455,185.692Z" transform="translate(-108.934 -160.383)" fill="#00b579"/>
        <path id="Path_590" data-name="Path 590" d="M145.973,181.869a2.469,2.469,0,1,0,3.122,1.566A2.473,2.473,0,0,0,145.973,181.869Z" transform="translate(-109.035 -160.35)" fill="#00b579"/>
        <path id="Path_591" data-name="Path 591" d="M146.591,165.163a1.207,1.207,0,0,0-1.578-1l-3.076.77.014-.038h0l1.184-3.179-4.188-1.558L138,162.693a4.06,4.06,0,0,0-6.8,2.628l-4.215-4.876-2.622,2.266,4.707,5.446-3.764.942-.9-1.57a1.206,1.206,0,0,0-1.428-.548l-2.235.741a1.207,1.207,0,0,0,.761,2.292l1.295-.43,7.525,13.2a1.208,1.208,0,0,0,1.429.548l15.456-5.129a1.208,1.208,0,0,0,.818-1.295Z" transform="translate(-108.822 -160.161)" fill="#00b579"/>
        <path id="Path_592" data-name="Path 592" d="M123.689,180.035h-13.42a1.545,1.545,0,1,0,0,3.09H125.45Z" transform="translate(-108.724 -160.335)" fill="#00b579"/>
        <path id="Path_593" data-name="Path 593" d="M120.2,173.8h-5.653a1.545,1.545,0,1,0,0,3.09h7.415Z" transform="translate(-108.761 -160.28)" fill="#00b579"/>
      </g>
    </g>
  </g>
</svg>
