<svg width="992" height="357" viewBox="0 0 992 357" fill="none" xmlns="http://www.w3.org/2000/svg">
<path d="M0.380127 64.2187C0.380127 28.8725 29.0339 0.21875 64.3801 0.21875H927.41C962.756 0.21875 991.41 28.8725 991.41 64.2187V292.781C991.41 328.127 962.756 356.781 927.41 356.781H64.3801C29.0339 356.781 0.380127 328.127 0.380127 292.781V64.2187Z" fill="#25754B"/>
<path d="M349.089 104.383C349.993 137.686 321.295 169.344 307.316 168.111C293.337 166.877 286.265 159.641 280.016 164.411C273.766 169.18 308.796 286.687 287.17 301.324C269.079 313.494 250.413 307.738 219.494 305.024C210.531 304.202 203.953 296.061 205.268 287.098C205.268 287.016 205.268 287.016 205.268 286.934C210.942 248.039 240.627 248.121 239.969 235.293C239.229 218.929 213.245 249.519 207.406 240.556C201.568 231.593 247.617 187.599 230.924 184.228C215.958 181.268 222.701 201.332 205.679 205.855C195.483 208.568 209.544 140.975 186.273 138.919C166.456 137.192 197.868 197.303 186.684 204.21C175.501 211.117 161.768 169.344 154.368 181.432C144.007 198.454 193.92 228.057 185.451 236.28C176.981 244.503 153.052 208.486 148.776 226.741C146.145 237.76 167.525 247.545 179.777 260.044C184.793 265.143 186.684 276.161 187.26 287.427C187.26 287.756 187.26 288.085 187.26 288.331C187.589 296.801 181.257 303.955 172.87 304.695C169.498 304.942 166.044 305.353 162.509 305.764C89.077 314.81 88.5836 299.35 87.5146 286.029C86.4456 272.708 112.184 160.052 105.605 153.803C99.0268 147.636 83.8142 159.97 71.4797 153.638C52.0734 143.935 43.8504 101.011 50.8399 86.4563C63.01 61.1294 138.004 40.9008 152.641 50.7684C161.686 56.9357 155.19 80.618 196.387 82.0981C237.585 83.5783 232.898 64.5009 249.015 55.1266C272.204 41.5586 349.089 104.383 349.089 104.383Z" fill="#F4F8F6"/>
<path d="M205.268 286.933C210.942 248.039 240.627 248.121 239.969 235.293C239.229 218.929 213.245 249.519 207.406 240.556C201.568 231.592 247.617 187.599 230.924 184.228C215.958 181.268 222.701 201.332 205.679 205.854C195.483 208.568 209.544 140.975 186.273 138.919C166.456 137.192 197.867 197.302 186.684 204.21C175.501 211.117 161.768 169.344 154.368 181.432C144.007 198.454 193.92 228.057 185.451 236.28C176.981 244.503 153.052 208.486 148.776 226.741C146.145 237.76 167.525 247.545 179.777 260.044C184.793 265.142 186.684 276.161 187.26 287.427C142.773 285.289 112.266 248.779 129.534 207.499C147.378 164.986 153.052 101.175 181.997 103.56C210.942 105.945 238.243 137.85 258.06 202.812C275.822 261.195 245.479 283.151 205.268 286.933Z" fill="#C1E53E"/>
<g clip-path="url(#clip0_27347_13379)">
<path d="M403.8 87.4697H478.57L487.29 105.94L433.65 167.56H482.56V190.91H407.94L399.22 172.44L452.86 110.82H403.8V87.4697Z" fill="#F4F8F6"/>
<path d="M486.96 137.42L498.63 117.32C500.25 118.95 502.92 121.01 506.46 123.82C508.38 115.4 511.93 108.3 516.8 102.39C526.56 90.7199 540.3 85.1099 554.49 85.1099C564.24 85.1099 572.96 87.6199 580.79 92.4999C592.02 99.4399 598.37 111.41 598.37 123.83C598.37 129.89 596.89 135.65 593.79 141.12C587.73 152.05 574.88 160.03 556.41 161.66C553.31 161.81 550.8 161.96 549.17 161.96C543.26 161.96 537.5 161.37 532.03 160.19C536.17 166.84 544.44 170.24 557 170.24C569.56 170.24 580.05 167.28 589.95 161.23L601.92 180.44C588.18 188.86 573.55 193.15 557.74 193.15C547.25 193.15 538.38 191.23 530.85 187.54C515.78 180.15 507.36 167.59 505.73 153.85L505.29 150.01C498.64 146.32 492.58 142.18 486.97 137.45L486.96 137.42ZM527.59 135.05C534.98 137.86 542.22 139.19 549.31 139.19C550.34 139.19 551.97 139.04 554.33 138.89C566 137.86 573.39 133.27 575.16 126.18C575.31 125.59 575.46 124.7 575.46 123.52C575.46 118.94 572.8 114.51 568.52 111.99C564.23 109.33 559.51 108 554.19 108C548.87 108 544 109.33 539.71 111.99C532.76 116.57 528.63 124.25 527.59 135.04V135.05Z" fill="#C1E53E"/>
<path d="M616.17 191.05V87.4697C640.99 87.4697 659.17 88.3597 670.4 91.1597C690.64 96.3297 702.91 108.45 702.91 126.62C702.91 139.33 698.62 149.23 690.2 156.32L709.71 179.52L692.57 193.85L669.22 166.07C663.6 167.4 657.1 168.14 649.72 168.14C646.03 168.14 642.48 167.99 638.93 167.7V191.05H616.17ZM638.93 109.93V145.39C642.03 145.83 645.73 145.98 649.86 145.98C669.51 145.98 679.71 139.92 680.15 127.66C680.59 113.62 658.58 109.93 638.92 109.93H638.93Z" fill="#F4F8F6"/>
<path d="M770.01 109.05C753.31 109.05 740.46 122.94 740.46 139.19C740.46 155.44 753.32 169.33 770.01 169.33C786.7 169.33 799.56 155.44 799.56 139.19C799.56 122.94 786.7 109.05 770.01 109.05ZM717.11 139.19C717.11 119.69 727.31 102.1 743.56 92.4998C751.69 87.6198 760.41 85.2598 770.01 85.2598C789.07 85.2598 806.21 95.5998 815.82 112.15C820.55 120.42 822.91 129.44 822.91 139.19C822.91 158.69 812.57 176.28 796.46 185.88C788.33 190.76 779.61 193.12 770.01 193.12C750.95 193.12 733.66 182.78 724.2 166.23C719.47 157.96 717.11 148.94 717.11 139.19Z" fill="#F4F8F6"/>
<path d="M867.9 190.91V170.52L902.62 135.65L905.72 132.69C912.22 126.78 915.77 122.79 915.77 117.91C915.77 111.56 908.82 108.31 901.29 108.31C894.2 108.31 887.4 112.15 885.18 119.24L863.9 110.23C870.86 93.8298 884.01 85.2598 901.74 85.2598C925.53 85.2598 940.75 98.8498 940.75 116.73C940.75 128.7 933.07 138.89 922.28 148.79L900.56 168.59H943.41V190.9H867.9V190.91Z" fill="#F4F8F6"/>
<path d="M424.04 271.89C421.64 271.89 419 271.72 416.03 271.31C409.5 270.4 403.14 268.09 397.11 264.37L404.13 253.71C408.84 256.68 414.95 258.67 420.65 259C421.39 259.08 422.55 259.08 423.95 259.08C427.34 259.08 429.9 258.75 431.8 258.09C434.77 257.02 436.01 256.11 436.01 254.12C436.01 253.21 435.51 252.47 434.61 251.89C431.72 250.16 428.75 249.99 422.55 249.99C415.2 249.99 408.09 247.92 403.88 243.63C400.66 240.41 398.84 235.78 398.84 231.24C398.84 224.63 403.05 218.11 409 214.8C412.88 212.57 417.67 211.41 423.21 211.41C425.19 211.41 427.59 211.58 430.4 211.99C435.93 212.82 440.81 214.3 445.19 216.45L438.83 227.52C437.76 227.02 436.68 226.61 435.53 226.2C433.8 225.62 431.4 225.04 428.43 224.55C426.61 224.3 424.8 224.14 423.06 224.14C421.32 224.14 419.84 224.3 418.43 224.64C414.22 225.63 411.57 228.52 411.57 231.41C411.57 233.97 413.72 236.2 417.93 236.95C418.84 237.2 420.33 237.28 422.39 237.28H425.53C428.92 237.28 432.39 237.69 435.86 238.6C440.49 240 444.86 242.81 446.85 246.78C448.17 249.09 448.83 251.57 448.83 254.3C448.83 257.03 448.17 259.5 446.85 261.65C442.64 269 434.21 271.89 424.05 271.89H424.04Z" fill="#F4F8F6"/>
<path d="M449.13 240.66L455.66 229.43C456.57 230.34 458.06 231.49 460.04 233.06C461.11 228.35 463.1 224.39 465.82 221.08C471.27 214.55 478.95 211.41 486.88 211.41C492.33 211.41 497.21 212.81 501.58 215.54C507.86 219.42 511.41 226.11 511.41 233.05C511.41 236.44 510.58 239.66 508.85 242.72C505.46 248.83 498.28 253.29 487.95 254.2C486.22 254.28 484.81 254.37 483.9 254.37C480.6 254.37 477.37 254.04 474.32 253.38C476.63 257.1 481.26 259 488.28 259C495.3 259 501.17 257.35 506.7 253.96L513.39 264.7C505.71 269.41 497.53 271.8 488.69 271.8C482.82 271.8 477.87 270.73 473.66 268.66C465.23 264.53 460.53 257.51 459.62 249.83L459.37 247.68C455.65 245.61 452.27 243.3 449.13 240.66ZM471.85 239.34C475.98 240.91 480.03 241.65 483.99 241.65C484.57 241.65 485.48 241.57 486.8 241.49C493.33 240.91 497.46 238.35 498.45 234.39C498.53 234.06 498.62 233.56 498.62 232.9C498.62 230.34 497.13 227.86 494.74 226.46C492.34 224.97 489.7 224.23 486.73 224.23C483.76 224.23 481.03 224.97 478.63 226.46C474.75 229.02 472.43 233.32 471.86 239.35L471.85 239.34Z" fill="#F4F8F6"/>
<path d="M512.95 216.54L526 211.42L543.35 250.99L560.7 211.42L573.75 216.54L549.96 270.56H536.74L512.95 216.54Z" fill="#F4F8F6"/>
<path d="M570.14 240.66L576.67 229.43C577.58 230.34 579.07 231.49 581.05 233.06C582.12 228.35 584.11 224.39 586.83 221.08C592.28 214.55 599.97 211.41 607.9 211.41C613.35 211.41 618.22 212.81 622.6 215.54C628.88 219.42 632.43 226.11 632.43 233.05C632.43 236.44 631.6 239.66 629.87 242.72C626.48 248.83 619.3 253.29 608.97 254.2C607.24 254.28 605.83 254.37 604.92 254.37C601.62 254.37 598.39 254.04 595.34 253.38C597.65 257.1 602.28 259 609.3 259C616.32 259 622.19 257.35 627.72 253.96L634.41 264.7C626.73 269.41 618.55 271.8 609.71 271.8C603.84 271.8 598.89 270.73 594.68 268.66C586.25 264.53 581.55 257.51 580.64 249.83L580.39 247.68C576.67 245.61 573.29 243.3 570.15 240.66H570.14ZM592.85 239.34C596.98 240.91 601.03 241.65 604.99 241.65C605.57 241.65 606.48 241.57 607.8 241.49C614.33 240.91 618.46 238.35 619.45 234.39C619.53 234.06 619.61 233.56 619.61 232.9C619.61 230.34 618.12 227.86 615.73 226.46C613.33 224.97 610.69 224.23 607.72 224.23C604.75 224.23 602.02 224.97 599.62 226.46C595.74 229.02 593.43 233.32 592.85 239.35V239.34Z" fill="#F4F8F6"/>
<path d="M642.85 216.05L652.68 213.32L654 212.99L654.83 212.74L680.85 247.6V212.74H693.57V267.34L682.5 270.31L681.51 270.56L655.57 235.78V270.56H642.85V216.04V216.05Z" fill="#F4F8F6"/>
<path d="M750.27 212.74V225.79H732.26V270.56H719.04V225.79H701.03V212.74H750.26H750.27Z" fill="#F4F8F6"/>
<path d="M748.49 240.66L755.02 229.43C755.93 230.34 757.41 231.49 759.4 233.06C760.47 228.35 762.46 224.39 765.18 221.08C770.63 214.55 778.31 211.41 786.24 211.41C791.69 211.41 796.57 212.81 800.94 215.54C807.22 219.42 810.77 226.11 810.77 233.05C810.77 236.44 809.94 239.66 808.21 242.72C804.82 248.83 797.64 253.29 787.31 254.2C785.58 254.28 784.17 254.37 783.26 254.37C779.96 254.37 776.73 254.04 773.68 253.38C775.99 257.1 780.62 259 787.64 259C794.66 259 800.53 257.35 806.06 253.96L812.75 264.7C805.07 269.41 796.89 271.8 788.05 271.8C782.18 271.8 777.23 270.73 773.02 268.66C764.59 264.53 759.88 257.51 758.98 249.83L758.73 247.68C755.01 245.61 751.63 243.3 748.49 240.66ZM771.21 239.34C775.34 240.91 779.39 241.65 783.35 241.65C783.93 241.65 784.84 241.57 786.16 241.49C792.68 240.91 796.82 238.35 797.81 234.39C797.89 234.06 797.98 233.56 797.98 232.9C797.98 230.34 796.49 227.86 794.1 226.46C791.7 224.97 789.06 224.23 786.09 224.23C783.12 224.23 780.39 224.97 777.99 226.46C774.11 229.02 771.79 233.32 771.22 239.35L771.21 239.34Z" fill="#F4F8F6"/>
<path d="M814.4 240.66L820.93 229.43C821.84 230.34 823.33 231.49 825.31 233.06C826.38 228.35 828.37 224.39 831.09 221.08C836.54 214.55 844.23 211.41 852.16 211.41C857.61 211.41 862.49 212.81 866.86 215.54C873.14 219.42 876.69 226.11 876.69 233.05C876.69 236.44 875.86 239.66 874.13 242.72C870.74 248.83 863.56 253.29 853.23 254.2C851.49 254.28 850.09 254.37 849.18 254.37C845.88 254.37 842.65 254.04 839.6 253.38C841.91 257.1 846.54 259 853.56 259C860.58 259 866.45 257.35 871.98 253.96L878.67 264.7C870.99 269.41 862.81 271.8 853.97 271.8C848.1 271.8 843.15 270.73 838.94 268.66C830.51 264.53 825.81 257.51 824.9 249.83L824.65 247.68C820.93 245.61 817.55 243.3 814.41 240.66H814.4ZM837.12 239.34C841.25 240.91 845.3 241.65 849.26 241.65C849.84 241.65 850.75 241.57 852.07 241.49C858.6 240.91 862.73 238.35 863.72 234.39C863.8 234.06 863.89 233.56 863.89 232.9C863.89 230.34 862.4 227.86 860.01 226.46C857.61 224.97 854.97 224.23 852 224.23C849.03 224.23 846.3 224.97 843.9 226.46C840.02 229.02 837.7 233.32 837.13 239.35L837.12 239.34Z" fill="#F4F8F6"/>
<path d="M887.12 216.05L896.95 213.32L898.27 212.99L899.1 212.74L925.12 247.6V212.74H937.84V267.34L926.77 270.31L925.78 270.56L899.84 235.78V270.56H887.12V216.04V216.05Z" fill="#F4F8F6"/>
</g>
<defs>
<clipPath id="clip0_27347_13379">
<rect width="546.3" height="186.78" fill="white" transform="translate(397.11 85.1099)"/>
</clipPath>
</defs>
</svg>
